P2
11 11
20
20 18 16 14 12 10 8 6 4 2 0 
18 16 14 12 10 8 6 4 2 0 2 
16 14 12 10 8 6 4 2 0 2 4 
14 12 10 8 6 4 2 0 2 4 6 
12 10 8 6 4 2 0 2 4 6 8 
10 8 6 4 2 0 2 4 6 8 10 
8 6 4 2 0 2 4 6 8 10 12 
6 4 2 0 2 4 6 8 10 12 14 
4 2 0 2 4 6 8 10 12 14 16 
2 0 2 4 6 8 10 12 14 16 18 
0 2 4 6 8 10 12 14 16 18 20 
