P2
#kom entarz
8 8 #kom entarz
#kom entarz
1
1 1 1 1 1 1 1 1
1 0 0 0 0 0 0 1 #kom entarz
1 0 0 0 0 0 0 1
1 0 0 0 0 0 0 1
#kom entarz
1 0 0 0 0 0 0 1
1 0 0 0 0 0 0 1
1 0 0 0 0 0 0 1
1 1 1 1 1 1 1 1