P2
11 11
20
0 2 4 6 8 10 12 14 16 0 20 
2 4 6 8 10 12 14 0 18 20 18 
4 6 8 10 12 14 16 18 20 18 16 
6 8 10 12 14 20 18 20 18 16 0 
8 10 12 14 16 18 20 18 16 14 12 
10 0 14 16 18 20 18 16 14 20 10 
12 14 16 18 20 18 16 14 12 10 8 
14 16 18 20 0 16 14 12 10 8 6 
16 18 20 18 16 20 12 10 8 6 4 
18 20 18 16 14 12 10 8 0 4 2 
20 18 16 14 12 10 8 6 4 2 0 
